<?xml version="1.0" standalone="no"?>
<!DOCTYPE svg PUBLIC "-//W3C//DTD SVG 20010904//EN"
 "http://www.w3.org/TR/2001/REC-SVG-20010904/DTD/svg10.dtd">
<svg version="1.0" xmlns="http://www.w3.org/2000/svg"
 width="64.000000pt" height="64.000000pt" viewBox="0 0 64.000000 64.000000"
 preserveAspectRatio="xMidYMid meet">

<g transform="translate(0.000000,64.000000) scale(0.100000,-0.100000)"
fill="#5841A8" stroke="none">
<path d="M212 427 c-50 -51 -92 -99 -92 -107 0 -15 178 -200 192 -200 10 0 38
30 38 42 0 5 -32 43 -72 84 l-71 74 71 74 c40 41 72 79 72 84 0 12 -28 42 -38
42 -4 0 -49 -42 -100 -93z"/>
<path d="M382 426 c-51 -51 -92 -99 -92 -106 0 -7 43 -56 95 -109 81 -82 97
-94 112 -85 36 22 27 45 -48 120 l-73 74 72 73 c39 40 72 79 72 88 0 18 -19
39 -35 39 -6 0 -53 -42 -103 -94z"/>
</g>
</svg>
