<?xml version="1.0" standalone="no"?>
<!DOCTYPE svg PUBLIC "-//W3C//DTD SVG 20010904//EN"
 "http://www.w3.org/TR/2001/REC-SVG-20010904/DTD/svg10.dtd">
<svg version="1.0" xmlns="http://www.w3.org/2000/svg"
 width="123.000000pt" height="125.000000pt" viewBox="0 0 123.000000 125.000000"
 preserveAspectRatio="xMidYMid meet">

<g transform="translate(0.000000,125.000000) scale(0.100000,-0.100000)"
fill="#5841A8" stroke="none">
<path d="M570 1237 c-31 -16 -47 -58 -34 -92 5 -13 119 -135 253 -271 l243
-246 -200 -202 c-311 -312 -312 -314 -298 -371 10 -38 65 -62 104 -46 32 13
572 562 584 593 5 11 5 31 2 45 -8 29 -533 567 -576 589 -33 17 -46 17 -78 1z"/>
<path d="M34 1206 c-21 -18 -28 -32 -28 -61 0 -41 -20 -19 339 -364 l160 -154
-250 -242 c-238 -232 -249 -244 -249 -280 0 -29 7 -43 28 -61 54 -47 56 -45
362 253 157 152 289 284 295 294 25 48 13 71 -95 174 -57 55 -190 182 -294
283 -206 197 -217 203 -268 158z"/>
</g>
</svg>
